<svg version="1" xmlns="http://www.w3.org/2000/svg" width="933.333" height="933.333" viewBox="0 0 700.000000 700.000000"><path d="M68.6 1.6C49.3 5.8 30.3 17.8 18.3 33.5c-6.4 8.3-13.4 22.3-15.9 32C.6 72.2.5 82.9.5 351v278.5l2.9 8.5c9.6 28.8 29.1 48.5 57.6 58.3l9.5 3.2h559l8.5-2.8c29.1-9.8 48.8-29.4 58.6-58.7l2.9-8.5v-559l-2.9-8.5c-8.1-24.4-23.4-42.3-45.1-53C632.4-.4 665.9.6 352.5.3 110.2.2 74.6.3 68.6 1.6zm383.9 38.9c11.2 5 26.4 19.6 37.4 35.8 7.4 11 18.3 30.7 27.9 50.7 4.7 9.6 8.8 17.7 9.2 18 1.7 1.1 23.1 45.3 22.3 46.1-.4.4-8 2.6-16.8 4.8-43 10.7-81.3 18.2-126 24.6-9.9 1.4-20.6 3-23.7 3.6l-5.8 1.2V341h213v51H377v232h-54l-.2-115.8-.3-115.7-107.2-.3L108 392v-51l107.3-.2 107.2-.3v-107l-4.5-.6c-2.5-.4-11.7-.1-20.5.7-8.8.8-30.6 1.8-48.5 2.4-17.9.6-41.9 1.4-53.5 2-11.5.5-25 1-29.9 1.2l-8.8.3-8.9-25.7c-4.8-14.1-8.6-25.8-8.4-26 .3-.2 1.8-9.8 3.5-21.3C154.3 90.2 166.4 61 186.5 61c9.5 0 14.2 4.6 23 22 13.4 26.8 36.7 61.9 58.9 88.7 11.8 14.3 7.5 13.1 37.6 10.8 51.4-3.8 92-8.4 94.8-10.7 2.1-1.8 7.7-13.5 10-20.8 5.7-18.7 8.3-38.3 9-70.5l.7-28 2.8-4.7c6.1-10.4 16.6-13 29.2-7.3z"/><path d="M446 86.4c0 25.8-3.6 52.5-9.9 72.3-2.8 9.1-2.8 9.3-.7 8.8 1.1-.3 6.8-1.4 12.6-2.5 9.3-1.7 16.4-3.2 43.8-9.6 4.1-.9 7.6-2.2 7.9-3 1-2.8-26.3-54.4-35-65.9-3.7-5-16.9-18.5-17.9-18.5-.5 0-.8 8.3-.8 18.4zM183.1 102.6c-3.2 11-5.8 22-8.5 35.9-3.2 16.7-7.9 48.5-7.3 49.2.6.5 76.7-1.4 77.3-2 .2-.2-3.2-5-7.7-10.7-14.6-18.7-31.7-44.7-43.5-65.7-3.6-6.5-6.9-12.2-7.4-12.7s-1.7 2.2-2.9 6z"/></svg>