<?xml version="1.0" encoding="utf-8"?>
<!-- Generator: Adobe Illustrator 22.1.0, SVG Export Plug-In . SVG Version: 6.00 Build 0)  -->
<svg version="1.1" id="Layer_1" xmlns="http://www.w3.org/2000/svg" xmlns:xlink="http://www.w3.org/1999/xlink" x="0px" y="0px"
	 viewBox="0 0 256 256" style="enable-background:new 0 0 256 256;" xml:space="preserve">
<style type="text/css">
	.st0{fill:#F15F61;}
	.st1{enable-background:new    ;}
	.st2{fill:#FFFFFF;}
	.st3{fill:none;stroke:#FFFFFF;stroke-width:10;stroke-linejoin:round;stroke-miterlimit:10;}
</style>
<path class="st0" d="M224,256H32c-17.7,0-32-14.3-32-32V32C0,14.3,14.3,0,32,0h192c17.7,0,32,14.3,32,32v192
	C256,241.7,241.7,256,224,256z"/>
<g class="st1">
	<path class="st2" d="M57.2,87.8l-6.5-19.2c63.4,0,110.8-5.2,142.3-15.7l8.6,17.1c-18.8,5.1-38.2,9-58.2,11.5
		c-1.5,0.3-3.3,0.6-5.4,1v42.2h78v18.8h-78v84.9h-20.2v-84.9H39.5v-18.8h78.3V84.8c-1.8,0.1-3.3,0.3-4.6,0.4
		c-9.3,0.9-17.6,1.3-24.8,1.3L57.2,87.8z"/>
</g>
<path class="st3" d="M56,69.5C61.3,28.7,66.3,27,68.5,27.1c2.1,0.1,2.3,4.8,12.5,20.5c9.1,14,14.9,19.9,17,22.6
	c12.4,15.3,40,13.8,52.8-4.8c4.4-6.4,5.8-15,6.7-21.3c2.3-14.9-0.9-23.8,2.6-25.4c3.7-1.6,11.7,6.7,15.2,12.1
	c5.6,8.5,11.4,21.2,13.7,26.3"/>
</svg>
