<svg xmlns="http://www.w3.org/2000/svg" xmlns:xlink="http://www.w3.org/1999/xlink" height="523.036" width="1019.88"><style><![CDATA[.B{font-size:11px}.C{font-family:Arial}.D{writing-mode:lr-tb}.E{fill:#fff}.F{font-weight:bold}.G{fill:#ed7d31}.H{fill:#c00000}.I{fill:#ffc000}.J{fill:#c9c9c9}.K{fill:#f9f}.L{fill:#5b9bd5}.M{fill:#b17ed8}.N{fill:#70ad47}.O{fill:#92d050}]]></style><defs><clipPath id="A"><path d="M0 0h792v612H0z"/></clipPath><clipPath id="B"><path d="M0 0h792v612H0z"/></clipPath><clipPath id="C"><path d="M20.58 481.66h751.66v15.68H20.58z"/></clipPath><clipPath id="D"><path d="M20.58 481.66h751.66v15.68H20.58z"/></clipPath><clipPath id="E"><path d="M20.58 481.66h751.66v15.68H20.58z"/></clipPath><clipPath id="F"><path d="M20.58 481.66h751.66v15.68H20.58z"/></clipPath><clipPath id="G"><path d="M20.58 481.66h751.66v15.68H20.58z"/></clipPath><clipPath id="H"><path d="M20.58 481.66h751.66v15.68H20.58z"/></clipPath><clipPath id="I"><path d="M20.58 481.66h751.66v15.68H20.58z"/></clipPath><clipPath id="J"><path d="M20.58 481.66h751.66v15.68H20.58z"/></clipPath><clipPath id="K"><path d="M20.58 481.66h751.66v15.68H20.58z"/></clipPath><clipPath id="L"><path d="M20.58 481.66h751.66v15.68H20.58z"/></clipPath><clipPath id="M"><path d="M20.58 481.66h751.66v15.68H20.58z"/></clipPath><clipPath id="N"><path d="M20.58 481.66h751.66v15.68H20.58z"/></clipPath><clipPath id="O"><path d="M20.58 466.96h751.66v15.68H20.58z"/></clipPath><clipPath id="P"><path d="M20.58 466.96h751.66v15.68H20.58z"/></clipPath><clipPath id="Q"><path d="M20.58 466.96h751.66v15.68H20.58z"/></clipPath><clipPath id="R"><path d="M20.58 466.96h751.66v15.68H20.58z"/></clipPath><clipPath id="S"><path d="M20.58 466.96h751.66v15.68H20.58z"/></clipPath><clipPath id="T"><path d="M20.58 466.96h751.66v15.68H20.58z"/></clipPath><clipPath id="U"><path d="M20.58 466.96h751.66v15.68H20.58z"/></clipPath><clipPath id="V"><path d="M20.58 452.26h751.66v15.68H20.58z"/></clipPath><clipPath id="W"><path d="M20.58 452.26h751.66v15.68H20.58z"/></clipPath><clipPath id="X"><path d="M20.58 452.26h751.66v15.68H20.58z"/></clipPath><clipPath id="Y"><path d="M20.58 452.26h751.66v15.68H20.58z"/></clipPath><clipPath id="Z"><path d="M20.58 452.26h751.66v15.68H20.58z"/></clipPath><clipPath id="a"><path d="M20.58 452.26h751.66v15.68H20.58z"/></clipPath><clipPath id="b"><path d="M20.58 452.26h751.66v15.68H20.58z"/></clipPath><clipPath id="c"><path d="M20.58 452.26h751.66v15.68H20.58z"/></clipPath><clipPath id="d"><path d="M20.58 452.26h751.66v15.68H20.58z"/></clipPath><clipPath id="e"><path d="M20.58 452.26h751.66v15.68H20.58z"/></clipPath><clipPath id="f"><path d="M20.58 437.56h751.66v15.68H20.58z"/></clipPath><clipPath id="g"><path d="M20.58 437.56h751.66v15.68H20.58z"/></clipPath><clipPath id="h"><path d="M20.58 437.56h751.66v15.68H20.58z"/></clipPath><clipPath id="i"><path d="M20.58 437.56h751.66v15.68H20.58z"/></clipPath><clipPath id="j"><path d="M20.58 437.56h751.66v15.68H20.58z"/></clipPath><clipPath id="k"><path d="M20.58 437.56h751.66v15.68H20.58z"/></clipPath><clipPath id="l"><path d="M20.58 437.56h751.66v15.68H20.58z"/></clipPath><clipPath id="m"><path d="M20.58 437.56h751.66v15.68H20.58z"/></clipPath><clipPath id="n"><path d="M20.58 437.56h751.66v15.68H20.58z"/></clipPath><clipPath id="o"><path d="M20.58 437.56h751.66v15.68H20.58z"/></clipPath><clipPath id="p"><path d="M20.58 437.56h751.66v15.68H20.58z"/></clipPath><clipPath id="q"><path d="M20.58 437.56h751.66v15.68H20.58z"/></clipPath><clipPath id="r"><path d="M20.58 437.56h751.66v15.68H20.58z"/></clipPath><clipPath id="s"><path d="M20.58 422.86h751.66v15.68H20.58z"/></clipPath><clipPath id="t"><path d="M20.58 422.86h751.66v15.68H20.58z"/></clipPath><clipPath id="u"><path d="M20.58 422.86h751.66v15.68H20.58z"/></clipPath><clipPath id="v"><path d="M20.58 422.86h751.66v15.68H20.58z"/></clipPath><clipPath id="w"><path d="M20.58 422.86h751.66v15.68H20.58z"/></clipPath><clipPath id="x"><path d="M20.58 422.86h751.66v15.68H20.58z"/></clipPath><clipPath id="y"><path d="M20.58 422.86h751.66v15.68H20.58z"/></clipPath><clipPath id="z"><path d="M20.58 422.86h751.66v15.68H20.58z"/></clipPath><clipPath id="AA"><path d="M20.58 422.86h751.66v15.68H20.58z"/></clipPath><clipPath id="AB"><path d="M20.58 422.86h751.66v15.68H20.58z"/></clipPath><clipPath id="AC"><path d="M20.58 422.86h751.66v15.68H20.58z"/></clipPath><clipPath id="AD"><path d="M20.58 422.86h751.66v15.68H20.58z"/></clipPath><clipPath id="AE"><path d="M20.58 408.16h751.66v15.68H20.58z"/></clipPath><clipPath id="AF"><path d="M20.58 408.16h751.66v15.68H20.58z"/></clipPath><clipPath id="AG"><path d="M20.58 408.16h751.66v15.68H20.58z"/></clipPath><clipPath id="AH"><path d="M20.58 408.16h751.66v15.68H20.58z"/></clipPath><clipPath id="AI"><path d="M20.58 408.16h751.66v15.68H20.58z"/></clipPath><clipPath id="AJ"><path d="M20.58 408.16h751.66v15.68H20.58z"/></clipPath><clipPath id="AK"><path d="M20.58 408.16h751.66v15.68H20.58z"/></clipPath><clipPath id="AL"><path d="M20.58 408.16h751.66v15.68H20.58z"/></clipPath><clipPath id="AM"><path d="M20.58 408.16h751.66v15.68H20.58z"/></clipPath><clipPath id="AN"><path d="M20.58 408.16h751.66v15.68H20.58z"/></clipPath><clipPath id="AO"><path d="M20.58 393.46h751.66v15.68H20.58z"/></clipPath><clipPath id="AP"><path d="M20.58 393.46h751.66v15.68H20.58z"/></clipPath><clipPath id="AQ"><path d="M20.58 393.46h751.66v15.68H20.58z"/></clipPath><clipPath id="AR"><path d="M20.58 393.46h751.66v15.68H20.58z"/></clipPath><clipPath id="AS"><path d="M20.58 393.46h751.66v15.68H20.58z"/></clipPath><clipPath id="AT"><path d="M20.58 393.46h751.66v15.68H20.58z"/></clipPath><clipPath id="AU"><path d="M20.58 393.46h751.66v15.68H20.58z"/></clipPath><clipPath id="AV"><path d="M20.58 393.46h751.66v15.68H20.58z"/></clipPath><clipPath id="AW"><path d="M20.58 378.76h751.66v15.68H20.58z"/></clipPath><clipPath id="AX"><path d="M20.58 378.76h751.66v15.68H20.58z"/></clipPath><clipPath id="AY"><path d="M20.58 378.76h751.66v15.68H20.58z"/></clipPath><clipPath id="AZ"><path d="M20.58 378.76h751.66v15.68H20.58z"/></clipPath><clipPath id="Aa"><path d="M20.58 378.76h751.66v15.68H20.58z"/></clipPath><clipPath id="Ab"><path d="M20.58 378.76h751.66v15.68H20.58z"/></clipPath><clipPath id="Ac"><path d="M20.58 378.76h751.66v15.68H20.58z"/></clipPath><clipPath id="Ad"><path d="M20.58 364.06h751.66v15.68H20.58z"/></clipPath><clipPath id="Ae"><path d="M20.58 364.06h751.66v15.68H20.58z"/></clipPath><clipPath id="Af"><path d="M20.58 364.06h751.66v15.68H20.58z"/></clipPath><clipPath id="Ag"><path d="M20.58 364.06h751.66v15.68H20.58z"/></clipPath><clipPath id="Ah"><path d="M20.58 364.06h751.66v15.68H20.58z"/></clipPath><clipPath id="Ai"><path d="M20.58 349.36h751.66v15.68H20.58z"/></clipPath><clipPath id="Aj"><path d="M20.58 349.36h751.66v15.68H20.58z"/></clipPath><clipPath id="Ak"><path d="M20.58 349.36h751.66v15.68H20.58z"/></clipPath><clipPath id="Al"><path d="M20.58 334.66h751.66v15.68H20.58z"/></clipPath><clipPath id="Am"><path d="M20.58 319.96h751.66v15.68H20.58z"/></clipPath><clipPath id="An"><path d="M20.58 319.96h751.66v15.68H20.58z"/></clipPath><clipPath id="Ao"><path d="M20.58 319.96h751.66v15.68H20.58z"/></clipPath><clipPath id="Ap"><path d="M20.58 319.96h751.66v15.68H20.58z"/></clipPath><clipPath id="Aq"><path d="M20.58 319.96h751.66v15.68H20.58z"/></clipPath><clipPath id="Ar"><path d="M20.58 319.96h751.66v15.68H20.58z"/></clipPath><clipPath id="As"><path d="M20.58 319.96h751.66v15.68H20.58z"/></clipPath><clipPath id="At"><path d="M20.58 319.96h751.66v15.68H20.58z"/></clipPath><clipPath id="Au"><path d="M20.58 305.26h751.66v15.68H20.58z"/></clipPath><clipPath id="Av"><path d="M20.58 305.26h751.66v15.68H20.58z"/></clipPath><clipPath id="Aw"><path d="M20.58 305.26h751.66v15.68H20.58z"/></clipPath><clipPath id="Ax"><path d="M20.58 305.26h751.66v15.68H20.58z"/></clipPath><clipPath id="Ay"><path d="M20.58 305.26h751.66v15.68H20.58z"/></clipPath><clipPath id="Az"><path d="M20.58 305.26h751.66v15.68H20.58z"/></clipPath><clipPath id="BA"><path d="M20.58 305.26h751.66v15.68H20.58z"/></clipPath><clipPath id="BB"><path d="M20.58 290.56h751.66v15.68H20.58z"/></clipPath><clipPath id="BC"><path d="M20.58 290.56h751.66v15.68H20.58z"/></clipPath><clipPath id="BD"><path d="M20.58 290.56h751.66v15.68H20.58z"/></clipPath><clipPath id="BE"><path d="M20.58 290.56h751.66v15.68H20.58z"/></clipPath><clipPath id="BF"><path d="M20.58 290.56h751.66v15.68H20.58z"/></clipPath><clipPath id="BG"><path d="M20.58 275.86h751.66v15.68H20.58z"/></clipPath><clipPath id="BH"><path d="M20.58 275.86h751.66v15.68H20.58z"/></clipPath><clipPath id="BI"><path d="M20.58 275.86h751.66v15.68H20.58z"/></clipPath><clipPath id="BJ"><path d="M20.58 275.86h751.66v15.68H20.58z"/></clipPath><clipPath id="BK"><path d="M20.58 275.86h751.66v15.68H20.58z"/></clipPath><clipPath id="BL"><path d="M20.58 275.86h751.66v15.68H20.58z"/></clipPath><clipPath id="BM"><path d="M20.58 275.86h751.66v15.68H20.58z"/></clipPath><clipPath id="BN"><path d="M20.58 261.16h751.66v15.68H20.58z"/></clipPath><clipPath id="BO"><path d="M20.58 261.16h751.66v15.68H20.58z"/></clipPath><clipPath id="BP"><path d="M20.58 261.16h751.66v15.68H20.58z"/></clipPath><clipPath id="BQ"><path d="M20.58 261.16h751.66v15.68H20.58z"/></clipPath><clipPath id="BR"><path d="M20.58 261.16h751.66v15.68H20.58z"/></clipPath><clipPath id="BS"><path d="M20.58 261.16h751.66v15.68H20.58z"/></clipPath><clipPath id="BT"><path d="M20.58 261.16h751.66v15.68H20.58z"/></clipPath><clipPath id="BU"><path d="M20.58 261.16h751.66v15.68H20.58z"/></clipPath><clipPath id="BV"><path d="M20.58 261.16h751.66v15.68H20.58z"/></clipPath><clipPath id="BW"><path d="M20.58 261.16h751.66v15.68H20.58z"/></clipPath><clipPath id="BX"><path d="M20.58 261.16h751.66v15.68H20.58z"/></clipPath><clipPath id="BY"><path d="M20.58 246.46h751.66v15.68H20.58z"/></clipPath><clipPath id="BZ"><path d="M20.58 246.46h751.66v15.68H20.58z"/></clipPath><clipPath id="Ba"><path d="M20.58 231.76h751.66v15.68H20.58z"/></clipPath><clipPath id="Bb"><path d="M20.58 231.76h751.66v15.68H20.58z"/></clipPath><clipPath id="Bc"><path d="M20.58 231.76h751.66v15.68H20.58z"/></clipPath><clipPath id="Bd"><path d="M20.58 231.76h751.66v15.68H20.58z"/></clipPath><clipPath id="Be"><path d="M20.58 231.76h751.66v15.68H20.58z"/></clipPath><clipPath id="Bf"><path d="M20.58 231.76h751.66v15.68H20.58z"/></clipPath><clipPath id="Bg"><path d="M20.58 231.76h751.66v15.68H20.58z"/></clipPath><clipPath id="Bh"><path d="M20.58 231.76h751.66v15.68H20.58z"/></clipPath><clipPath id="Bi"><path d="M20.58 231.76h751.66v15.68H20.58z"/></clipPath><clipPath id="Bj"><path d="M20.58 231.76h751.66v15.68H20.58z"/></clipPath><clipPath id="Bk"><path d="M20.58 231.76h751.66v15.68H20.58z"/></clipPath><clipPath id="Bl"><path d="M20.58 231.76h751.66v15.68H20.58z"/></clipPath><clipPath id="Bm"><path d="M20.58 231.76h751.66v15.68H20.58z"/></clipPath><clipPath id="Bn"><path d="M20.58 217.06h751.66v15.68H20.58z"/></clipPath><clipPath id="Bo"><path d="M20.58 217.06h751.66v15.68H20.58z"/></clipPath><clipPath id="Bp"><path d="M20.58 217.06h751.66v15.68H20.58z"/></clipPath><clipPath id="Bq"><path d="M20.58 217.06h751.66v15.68H20.58z"/></clipPath><clipPath id="Br"><path d="M20.58 217.06h751.66v15.68H20.58z"/></clipPath><clipPath id="Bs"><path d="M20.58 217.06h751.66v15.68H20.58z"/></clipPath><clipPath id="Bt"><path d="M20.58 217.06h751.66v15.68H20.58z"/></clipPath><clipPath id="Bu"><path d="M20.58 217.06h751.66v15.68H20.58z"/></clipPath><clipPath id="Bv"><path d="M20.58 217.06h751.66v15.68H20.58z"/></clipPath><clipPath id="Bw"><path d="M20.58 217.06h751.66v15.68H20.58z"/></clipPath><clipPath id="Bx"><path d="M20.58 217.06h751.66v15.68H20.58z"/></clipPath><clipPath id="By"><path d="M20.58 217.06h751.66v15.68H20.58z"/></clipPath><clipPath id="Bz"><path d="M20.58 217.06h751.66v15.68H20.58z"/></clipPath><clipPath id="CA"><path d="M20.58 202.36h751.66v15.68H20.58z"/></clipPath><clipPath id="CB"><path d="M20.58 202.36h751.66v15.68H20.58z"/></clipPath><clipPath id="CC"><path d="M20.58 202.36h751.66v15.68H20.58z"/></clipPath><clipPath id="CD"><path d="M20.58 202.36h751.66v15.68H20.58z"/></clipPath><clipPath id="CE"><path d="M20.58 202.36h751.66v15.68H20.58z"/></clipPath><clipPath id="CF"><path d="M20.58 202.36h751.66v15.68H20.58z"/></clipPath><clipPath id="CG"><path d="M20.58 202.36h751.66v15.68H20.58z"/></clipPath><clipPath id="CH"><path d="M20.58 202.36h751.66v15.68H20.58z"/></clipPath><clipPath id="CI"><path d="M20.58 202.36h751.66v15.68H20.58z"/></clipPath><clipPath id="CJ"><path d="M20.58 202.36h751.66v15.68H20.58z"/></clipPath><clipPath id="CK"><path d="M20.58 202.36h751.66v15.68H20.58z"/></clipPath><clipPath id="CL"><path d="M20.58 202.36h751.66v15.68H20.58z"/></clipPath><clipPath id="CM"><path d="M20.58 202.36h751.66v15.68H20.58z"/></clipPath><clipPath id="CN"><path d="M20.58 187.66h751.66v15.68H20.58z"/></clipPath><clipPath id="CO"><path d="M20.58 187.66h751.66v15.68H20.58z"/></clipPath><clipPath id="CP"><path d="M20.58 187.66h751.66v15.68H20.58z"/></clipPath><clipPath id="CQ"><path d="M20.58 187.66h751.66v15.68H20.58z"/></clipPath><clipPath id="CR"><path d="M20.58 187.66h751.66v15.68H20.58z"/></clipPath><clipPath id="CS"><path d="M20.58 187.66h751.66v15.68H20.58z"/></clipPath><clipPath id="CT"><path d="M20.58 187.66h751.66v15.68H20.58z"/></clipPath><clipPath id="CU"><path d="M20.58 187.66h751.66v15.68H20.58z"/></clipPath><clipPath id="CV"><path d="M20.58 187.66h751.66v15.68H20.58z"/></clipPath><clipPath id="CW"><path d="M20.58 187.66h751.66v15.68H20.58z"/></clipPath><clipPath id="CX"><path d="M20.58 187.66h751.66v15.68H20.58z"/></clipPath><clipPath id="CY"><path d="M20.58 187.66h751.66v15.68H20.58z"/></clipPath><clipPath id="CZ"><path d="M20.58 187.66h751.66v15.68H20.58z"/></clipPath><clipPath id="Ca"><path d="M20.58 172.96h751.66v15.68H20.58z"/></clipPath><clipPath id="Cb"><path d="M20.58 172.96h751.66v15.68H20.58z"/></clipPath><clipPath id="Cc"><path d="M20.58 172.96h751.66v15.68H20.58z"/></clipPath><clipPath id="Cd"><path d="M20.58 172.96h751.66v15.68H20.58z"/></clipPath><clipPath id="Ce"><path d="M20.58 172.96h751.66v15.68H20.58z"/></clipPath><clipPath id="Cf"><path d="M20.58 172.96h751.66v15.68H20.58z"/></clipPath><clipPath id="Cg"><path d="M20.58 172.96h751.66v15.68H20.58z"/></clipPath><clipPath id="Ch"><path d="M20.58 172.96h751.66v15.68H20.58z"/></clipPath><clipPath id="Ci"><path d="M20.58 172.96h751.66v15.68H20.58z"/></clipPath><clipPath id="Cj"><path d="M20.58 172.96h751.66v15.68H20.58z"/></clipPath><clipPath id="Ck"><path d="M20.58 172.96h751.66v15.68H20.58z"/></clipPath><clipPath id="Cl"><path d="M20.58 172.96h751.66v15.68H20.58z"/></clipPath><clipPath id="Cm"><path d="M20.58 172.96h751.66v15.68H20.58z"/></clipPath><clipPath id="Cn"><path d="M20.58 143.56h751.66v15.68H20.58z"/></clipPath><clipPath id="Co"><path d="M20.58 143.56h751.66v15.68H20.58z"/></clipPath><clipPath id="Cp"><path d="M20.58 128.86h751.66v15.68H20.58z"/></clipPath><clipPath id="Cq"><path d="M20.58 128.86h751.66v15.68H20.58z"/></clipPath><clipPath id="Cr"><path d="M20.58 114.16h751.66v15.68H20.58z"/></clipPath><clipPath id="Cs"><path d="M20.58 114.16h751.66v15.68H20.58z"/></clipPath><clipPath id="Ct"><path d="M20.58 114.16h751.66v15.68H20.58z"/></clipPath><clipPath id="Cu"><path d="M0 0h792v612H0z"/></clipPath><path id="Cv" d="M19.6 483.62h140.14v-15.68H19.6z"/><path id="Cw" d="M158.76 483.62h102.9v-15.68h-102.9z"/><path id="Cx" d="M260.68 483.62h51.94v-15.68h-51.94z"/><path id="Cy" d="M617.4 483.62h51.94v-15.68H617.4z"/><path id="Cz" d="M158.76 497.34h.98v-323.4h-.98z"/><path id="DA" d="M20.58 498.32h750.68v-.98H20.58z"/></defs><g clip-path="url(#A)" transform="matrix(1.333333 0 0 -1.333333 -17.916667 672.09373)"><g clip-path="url(#B)"><path d="M19.6 498.32h751.66v-15.68H19.6z" fill="#404040"/><use xlink:href="#Cv" class="E"/><use xlink:href="#Cw" class="I"/><use xlink:href="#Cx" class="G"/><path d="M311.64 483.62h51.94v-15.68h-51.94z" class="E"/><path d="M362.6 483.62h51.94v-15.68H362.6z" class="H"/><path d="M413.56 483.62h51.94v-15.68h-51.94z" class="I"/><path d="M464.52 483.62h153.86v-15.68H464.52z" class="E"/><use xlink:href="#Cy" class="G"/><path d="M668.36 483.62h102.9v-15.68h-102.9z" class="E"/><path d="M19.6 468.92h140.14v-15.68H19.6z" class="I"/><path d="M158.76 468.92h51.94v-15.68h-51.94z" class="E"/><path d="M209.72 468.92h51.94v-15.68h-51.94z" class="I"/><path d="M260.68 468.92h51.94v-15.68h-51.94z" class="G"/><g class="I"><path d="M311.64 468.92h255.78v-15.68H311.64z"/><path d="M566.44 468.92h51.94v-15.68h-51.94z"/></g><path d="M617.4 468.92h51.94v-15.68H617.4z" class="G"/><path d="M668.36 468.92h102.9v-15.68h-102.9z" class="E"/><path d="M19.6 454.22h598.78v-15.68H19.6z" class="H"/><path d="M617.4 454.22h51.94v-15.68H617.4z" class="G"/><path d="M668.36 454.22h102.9v-15.68h-102.9z" class="H"/><path d="M19.6 439.52h191.1v-15.68H19.6z" class="K"/><path d="M209.72 439.52h51.94v-15.68h-51.94z" class="H"/><path d="M260.68 439.52h51.94v-15.68h-51.94z" class="G"/><path d="M311.64 439.52h51.94v-15.68h-51.94z" class="H"/><path d="M362.6 439.52h51.94v-15.68H362.6z" class="K"/><path d="M413.56 439.52h51.94v-15.68h-51.94z" class="H"/><path d="M464.52 439.52h51.94v-15.68h-51.94z" class="E"/><path d="M515.48 439.52h51.94v-15.68h-51.94z" class="K"/><path d="M566.44 439.52h51.94v-15.68h-51.94z" class="H"/><path d="M617.4 439.52h51.94v-15.68H617.4z" class="G"/><path d="M668.36 439.52h102.9v-15.68h-102.9z" class="K"/><path d="M19.6 424.82h140.14v-15.68H19.6z" class="L"/><path d="M158.76 424.82h51.94v-15.68h-51.94z" class="H"/><path d="M209.72 424.82h51.94v-15.68h-51.94z" class="L"/><path d="M260.68 424.82h51.94v-15.68h-51.94z" class="G"/><path d="M311.64 424.82h102.9v-15.68h-102.9z" class="L"/><path d="M413.56 424.82h102.9v-15.68h-102.9z" class="I"/><path d="M515.48 424.82h51.94v-15.68h-51.94z" class="H"/><path d="M566.44 424.82h51.94v-15.68h-51.94z" class="E"/><path d="M617.4 424.82h51.94v-15.68H617.4z" class="G"/><path d="M668.36 424.82h102.9v-15.68h-102.9z" class="E"/><path d="M19.6 410.12h140.14v-15.68H19.6z" class="N"/><path d="M158.76 410.12h102.9v-15.68h-102.9z" class="E"/><path d="M260.68 410.12h51.94v-15.68h-51.94z" class="G"/><path d="M311.64 410.12h102.9v-15.68h-102.9z" class="N"/><path d="M413.56 410.12h153.86v-15.68H413.56z" class="I"/><path d="M566.44 410.12h51.94v-15.68h-51.94z" class="E"/><path d="M617.4 410.12h51.94v-15.68H617.4z" class="G"/><path d="M668.36 410.12h102.9v-15.68h-102.9z" class="E"/><path d="M19.6 395.42h140.14v-15.68H19.6z" class="O"/><path d="M158.76 395.42h102.9v-15.68h-102.9z" class="E"/><path d="M260.68 395.42h51.94v-15.68h-51.94z" class="G"/><path d="M311.64 395.42h51.94v-15.68h-51.94z" class="L"/><path d="M362.6 395.42h51.94v-15.68H362.6z" class="N"/><path d="M413.56 395.42h51.94v-15.68h-51.94z" class="O"/><path d="M464.52 395.42h153.86v-15.68H464.52z" class="E"/><path d="M617.4 395.42h51.94v-15.68H617.4z" class="G"/><path d="M668.36 395.42h51.94v-15.68h-51.94z" class="H"/><path d="M719.32 395.42h51.94v-15.68h-51.94zM19.6 380.72h140.14v-15.68H19.6z" class="E"/><path d="M158.76 380.72h51.94v-15.68h-51.94z" class="I"/><path d="M209.72 380.72h51.94v-15.68h-51.94z" class="E"/><path d="M260.68 380.72h51.94v-15.68h-51.94z" class="G"/><path d="M311.64 380.72h51.94v-15.68h-51.94z" class="E"/><path d="M362.6 380.72h51.94v-15.68H362.6z" class="K"/><path d="M413.56 380.72h51.94v-15.68h-51.94z" class="O"/><path d="M464.52 380.72h306.74v-15.68H464.52zM19.6 366.02h343.98v-15.68H19.6z" class="E"/><path d="M362.6 366.02h51.94v-15.68H362.6z" class="M"/><path d="M413.56 366.02h51.94v-15.68h-51.94z" class="O"/><g class="E"><path d="M464.52 366.02h306.74v-15.68H464.52z"/><path d="M19.6 351.32h751.66v-15.68H19.6z"/><path d="M19.6 336.62h140.14v-15.68H19.6z"/></g><path d="M158.76 336.62H465.5v-15.68H158.76z" class="J"/><path d="M464.52 336.62h51.94v-15.68h-51.94z" class="H"/><path d="M515.48 336.62h255.78v-15.68H515.48z" class="E"/><path d="M19.6 321.92h140.14v-15.68H19.6z" class="M"/><path d="M158.76 321.92h51.94v-15.68h-51.94z" class="H"/><path d="M209.72 321.92h51.94v-15.68h-51.94z" class="E"/><path d="M260.68 321.92h51.94v-15.68h-51.94z" class="G"/><path d="M311.64 321.92h102.9v-15.68h-102.9z" class="N"/><path d="M413.56 321.92h51.94v-15.68h-51.94z" class="E"/><path d="M464.52 321.92h51.94v-15.68h-51.94z" class="H"/><path d="M515.48 321.92h102.9v-15.68h-102.9z" class="E"/><path d="M617.4 321.92h51.94v-15.68H617.4z" class="G"/><path d="M668.36 321.92h102.9v-15.68h-102.9z" class="E"/><path d="M19.6 307.22h140.14v-15.68H19.6z" class="M"/><path d="M158.76 307.22h51.94v-15.68h-51.94z" class="H"/><path d="M209.72 307.22h51.94v-15.68h-51.94z" class="E"/><path d="M260.68 307.22h51.94v-15.68h-51.94z" class="G"/><path d="M311.64 307.22H465.5v-15.68H311.64z" class="E"/><path d="M464.52 307.22h51.94v-15.68h-51.94z" class="H"/><path d="M515.48 307.22h102.9v-15.68h-102.9z" class="E"/><path d="M617.4 307.22h51.94v-15.68H617.4z" class="G"/><path d="M668.36 307.22h102.9v-15.68h-102.9z" class="E"/><path d="M19.6 292.52h140.14v-15.68H19.6z" class="M"/><path d="M158.76 292.52h51.94v-15.68h-51.94z" class="H"/><path d="M209.72 292.52h51.94v-15.68h-51.94z" class="E"/><path d="M260.68 292.52h51.94v-15.68h-51.94z" class="G"/><path d="M311.64 292.52h51.94v-15.68h-51.94z" class="L"/><path d="M362.6 292.52h51.94v-15.68H362.6z" class="M"/><path d="M413.56 292.52h51.94v-15.68h-51.94z" class="E"/><path d="M464.52 292.52h51.94v-15.68h-51.94z" class="H"/><path d="M515.48 292.52h102.9v-15.68h-102.9z" class="E"/><path d="M617.4 292.52h51.94v-15.68H617.4z" class="G"/><path d="M668.36 292.52h102.9v-15.68h-102.9zM19.6 277.82h140.14v-15.68H19.6z" class="E"/><path d="M158.76 277.82H465.5v-15.68H158.76z" class="J"/><path d="M464.52 277.82h102.9v-15.68h-102.9z" class="E"/><path d="M566.44 277.82h204.82v-15.68H566.44z" class="J"/><path d="M19.6 263.12h293.02v-15.68H19.6z" class="E"/><path d="M311.64 263.12h51.94v-15.68h-51.94z" class="I"/><path d="M362.6 263.12h408.66v-15.68H362.6zm-343-14.7h140.14v-15.68H19.6z" class="E"/><path d="M158.76 248.42h612.5v-15.68h-612.5z" class="J"/><path d="M19.6 233.72h140.14v-15.68H19.6z" class="E"/><path d="M158.76 233.72h612.5v-15.68h-612.5z" fill="#a5a5a5"/><path d="M19.6 219.02h140.14v-15.68H19.6z" class="E"/><path d="M158.76 219.02h510.58v-15.68H158.76z" class="J"/><path d="M668.36 219.02h51.94v-15.68h-51.94z" class="K"/><path d="M719.32 219.02h51.94v-15.68h-51.94z" class="J"/><path d="M19.6 204.32h140.14v-15.68H19.6z" class="E"/><path d="M158.76 204.32h612.5v-15.68h-612.5z" fill="#a5a5a5"/><path d="M19.6 189.62h140.14v-15.68H19.6z" class="E"/><path d="M158.76 189.62h612.5v-15.68h-612.5z" class="J"/><path d="M19.6 174.92h751.66v-59.78H19.6z" class="E"/></g><g clip-path="url(#C)" class="B C D E F"><text transform="matrix(.98 0 0 -.98 182.28 486.56)"><tspan x="0" y="0">0</tspan></text></g><g clip-path="url(#D)" class="B C D E F"><text transform="matrix(.98 0 0 -.98 233.24 486.56)"><tspan x="0" y="0">5</tspan></text></g><g clip-path="url(#E)" class="B C D F H"><text transform="matrix(.98 0 0 -.98 281.26 486.56)"><tspan x="0 6.118" y="0">10</tspan></text></g><g clip-path="url(#F)" class="B C D E F"><text transform="matrix(.98 0 0 -.98 332.22 486.56)"><tspan x="0 6.118" y="0">15</tspan></text></g><g clip-path="url(#G)" class="B C D E F"><text transform="matrix(.98 0 0 -.98 383.18 486.56)"><tspan x="0 6.118" y="0">20</tspan></text></g><g clip-path="url(#H)" class="B C D E F"><text transform="matrix(.98 0 0 -.98 434.14 486.56)"><tspan x="0 6.118" y="0">25</tspan></text></g><g clip-path="url(#I)" class="B C D E F"><text transform="matrix(.98 0 0 -.98 485.1 486.56)"><tspan x="0 6.118" y="0">30</tspan></text></g><g clip-path="url(#J)" class="B C D E F"><text transform="matrix(.98 0 0 -.98 536.06 486.56)"><tspan x="0 6.118" y="0">35</tspan></text></g><g clip-path="url(#K)" class="B C D E F"><text transform="matrix(.98 0 0 -.98 587.02 486.56)"><tspan x="0 6.118" y="0">40</tspan></text></g><g clip-path="url(#L)" class="B C D F H"><text transform="matrix(.98 0 0 -.98 637.98 486.56)"><tspan x="0 6.118" y="0">45</tspan></text></g><g clip-path="url(#M)" class="B C D E F"><text transform="matrix(.98 0 0 -.98 688.94 486.56)"><tspan x="0 6.118" y="0">50</tspan></text></g><g clip-path="url(#N)" class="B C D E F"><text transform="matrix(.98 0 0 -.98 739.9 486.56)"><tspan x="0 6.118" y="0">55</tspan></text></g><g clip-path="url(#O)" class="B C D"><text transform="matrix(.98 0 0 -.98 71.54 471.86)"><tspan x="0 7.944 14.062 20.18 25.68 31.8" y="0">Duncan</tspan></text></g><g clip-path="url(#P)" class="B C D E F"><text transform="matrix(.98 0 0 -.98 182.28 471.86)"><tspan x="0" y="0">1</tspan></text></g><g clip-path="url(#Q)" class="B C D E F"><text transform="matrix(.98 0 0 -.98 233.24 471.86)"><tspan x="0" y="0">1</tspan></text></g><g clip-path="url(#R)" class="B C D F"><text transform="matrix(.98 0 0 -.98 280.28 471.86)"><tspan x="0 6.72" y="0">LL</tspan></text></g><g clip-path="url(#S)"><path d="M386.12 474.113h5.995v.537h-5.995z"/><text transform="matrix(.98 0 0 -.98 386.12 471.86)" class="B C D F"><tspan x="0" y="0">1</tspan></text></g><g clip-path="url(#T)"><path d="M437.08 474.113h5.995v.537h-5.995z"/><text transform="matrix(.98 0 0 -.98 437.08 471.86)" class="B C D"><tspan x="0" y="0">1</tspan></text></g><g clip-path="url(#U)" class="B C D F"><text transform="matrix(.98 0 0 -.98 637 471.86)"><tspan x="0 6.72" y="0">LL</tspan></text></g><g clip-path="url(#V)" class="B C D"><text transform="matrix(.98 0 0 -.98 71.54 457.16)"><tspan x="0 9.163 15.28 17.725 23.225 29.344" y="0">Malcom</tspan></text></g><g clip-path="url(#W)" class="B C D E F"><text transform="matrix(.98 0 0 -.98 233.24 457.16)"><tspan x="0" y="0">1</tspan></text></g><g clip-path="url(#X)" class="B C D F"><text transform="matrix(.98 0 0 -.98 280.28 457.16)"><tspan x="0 6.72" y="0">LL</tspan></text></g><g clip-path="url(#Y)" class="B C D"><text transform="matrix(.98 0 0 -.98 335.16 457.16)"><tspan x="0" y="0">4</tspan></text></g><g clip-path="url(#Z)" class="B C D"><text transform="matrix(.98 0 0 -.98 383.18 457.16)"><tspan x="0 3.056 9.17" y="0">[4]</tspan></text></g><g clip-path="url(#a)" class="B C D"><text transform="matrix(.98 0 0 -.98 437.08 457.16)"><tspan x="0" y="0">1</tspan></text></g><g clip-path="url(#b)" class="B C D F"><text transform="matrix(.98 0 0 -.98 488.04 457.16)"><tspan x="0" y="0">4</tspan></text></g><g clip-path="url(#c)" class="B C D F"><text transform="matrix(.98 0 0 -.98 535.08 457.16)"><tspan x="0 3.663 9.78" y="0">[4]</tspan></text></g><g clip-path="url(#d)" class="B C D F"><text transform="matrix(.98 0 0 -.98 589.96 457.16)"><tspan x="0" y="0">1</tspan></text></g><g clip-path="url(#e)" class="B C D F"><text transform="matrix(.98 0 0 -.98 637 457.16)"><tspan x="0 6.72" y="0">LL</tspan></text></g><g clip-path="url(#f)" class="B C D"><text transform="matrix(.98 0 0 -.98 69.58 442.46)"><tspan x="0 9.163 15.28 20.78 26.9 33.018 36.073" y="0">Macbeth</tspan></text></g><g clip-path="url(#g)" class="B C D"><text transform="matrix(.98 0 0 -.98 182.28 442.46)"><tspan x="0" y="0">2</tspan></text></g><g clip-path="url(#h)" class="B C D F"><text transform="matrix(.98 0 0 -.98 233.24 442.46)"><tspan x="0" y="0">3</tspan></text></g><g clip-path="url(#i)" class="B C D F"><text transform="matrix(.98 0 0 -.98 284.2 442.46)"><tspan x="0" y="0">1</tspan></text></g><g clip-path="url(#j)" class="B C D F"><text transform="matrix(.98 0 0 -.98 335.16 442.46)"><tspan x="0" y="0">3</tspan></text></g><g clip-path="url(#k)" class="B C D F"><text transform="matrix(.98 0 0 -.98 386.12 442.46)"><tspan x="0" y="0">1</tspan></text></g><g clip-path="url(#l)" class="B C D F"><text transform="matrix(.98 0 0 -.98 437.08 442.46)"><tspan x="0" y="0">3</tspan></text></g><g clip-path="url(#m)" class="B C D F"><text transform="matrix(.98 0 0 -.98 488.04 442.46)"><tspan x="0" y="0">4</tspan></text></g><g clip-path="url(#n)" class="B C D F"><text transform="matrix(.98 0 0 -.98 539 442.46)"><tspan x="0" y="0">4</tspan></text></g><g clip-path="url(#o)" class="B C D F"><text transform="matrix(.98 0 0 -.98 589.96 442.46)"><tspan x="0" y="0">3</tspan></text></g><g clip-path="url(#p)" class="B C D F"><text transform="matrix(.98 0 0 -.98 637 442.46)"><tspan x="0 6.72" y="0">LL</tspan></text></g><g clip-path="url(#q)" class="B C D"><text transform="matrix(.98 0 0 -.98 691.88 442.46)"><tspan x="0" y="0">2</tspan></text></g><g clip-path="url(#r)" class="B C D F"><text transform="matrix(.98 0 0 -.98 738.92 442.46)"><tspan x="0 3.663 9.78" y="0">(3)</tspan></text></g><g clip-path="url(#s)" class="B C D"><text transform="matrix(.98 0 0 -.98 55.86 427.76)"><tspan x="0 6.118 12.236 18.355 23.855 26.9 36.073 42.192 47.692 53.8 59.928 62.984" y="0">Lady Macbeth</tspan></text></g><g clip-path="url(#t)" class="B C D F"><text transform="matrix(.98 0 0 -.98 182.28 427.76)"><tspan x="0" y="0">3</tspan></text></g><g clip-path="url(#u)" class="B C D F"><text transform="matrix(.98 0 0 -.98 233.24 427.76)"><tspan x="0" y="0">3</tspan></text></g><g clip-path="url(#v)" class="B C D F"><text transform="matrix(.98 0 0 -.98 280.28 427.76)"><tspan x="0 6.72" y="0">LL</tspan></text></g><g clip-path="url(#w)" class="B C D F"><text transform="matrix(.98 0 0 -.98 335.16 427.76)"><tspan x="0" y="0">3</tspan></text></g><g clip-path="url(#x)" class="B C D"><text transform="matrix(.98 0 0 -.98 386.12 427.76)"><tspan x="0" y="0">2</tspan></text></g><g clip-path="url(#y)" class="B C D F"><text transform="matrix(.98 0 0 -.98 437.08 427.76)"><tspan x="0" y="0">3</tspan></text></g><g clip-path="url(#z)" class="B C D"><text transform="matrix(.98 0 0 -.98 535.08 427.76)"><tspan x="0 3.663 9.78" y="0">(4)</tspan></text></g><g clip-path="url(#AA)" class="B C D F"><text transform="matrix(.98 0 0 -.98 589.96 427.76)"><tspan x="0" y="0">3</tspan></text></g><g clip-path="url(#AB)" class="B C D F"><text transform="matrix(.98 0 0 -.98 637 427.76)"><tspan x="0 6.72" y="0">LL</tspan></text></g><g clip-path="url(#AC)" class="B C D F"><text transform="matrix(.98 0 0 -.98 687.96 427.76)"><tspan x="0 3.663 9.78" y="0">(5)</tspan></text></g><g clip-path="url(#AD)" class="B C D"><text transform="matrix(.98 0 0 -.98 738.92 427.76)"><tspan x="0 3.663 9.78" y="0">(5)</tspan></text></g><g clip-path="url(#AE)" class="B C D"><text transform="matrix(.98 0 0 -.98 71.54 413.06)"><tspan x="0 7.337 13.455 19.573 25.692 31.8" y="0">Banquo</tspan></text></g><g clip-path="url(#AF)" class="B C D"><text transform="matrix(.98 0 0 -.98 182.28 413.06)"><tspan x="0" y="0">2</tspan></text></g><g clip-path="url(#AG)" class="B C D E"><text transform="matrix(.98 0 0 -.98 230.3 413.06)"><tspan x="0 3.056 9.17" y="0">[2]</tspan></text></g><g clip-path="url(#AH)" class="B C D F"><text transform="matrix(.98 0 0 -.98 280.28 413.06)"><tspan x="0 6.72" y="0">LL</tspan></text></g><g clip-path="url(#AI)" class="B C D F"><text transform="matrix(.98 0 0 -.98 335.16 413.06)"><tspan x="0" y="0">2</tspan></text></g><g clip-path="url(#AJ)" class="B C D"><text transform="matrix(.98 0 0 -.98 386.12 413.06)"><tspan x="0" y="0">2</tspan></text></g><g clip-path="url(#AK)" class="B C D"><text transform="matrix(.98 0 0 -.98 437.08 413.06)"><tspan x="0" y="0">1</tspan></text></g><g clip-path="url(#AL)" class="B C D F"><text transform="matrix(.98 0 0 -.98 488.04 413.06)"><tspan x="0" y="0">4</tspan></text></g><g clip-path="url(#AM)"><path d="M539 415.313h5.995v.537H539z"/><text transform="matrix(.98 0 0 -.98 539 413.06)" class="B C D F"><tspan x="0" y="0">4</tspan></text></g><g clip-path="url(#AN)" class="B C D F"><text transform="matrix(.98 0 0 -.98 637 413.06)"><tspan x="0 6.72" y="0">LL</tspan></text></g><g clip-path="url(#AO)" class="B C D"><text transform="matrix(.98 0 0 -.98 70.56 398.36)"><tspan x="0 9.163 15.28 20.78 26.9 33.018 36.073" y="0">Macduff</tspan></text></g><g clip-path="url(#AP)" class="B C D F"><text transform="matrix(.98 0 0 -.98 280.28 398.36)"><tspan x="0 6.72" y="0">LL</tspan></text></g><g clip-path="url(#AQ)" class="B C D E"><text transform="matrix(.98 0 0 -.98 335.16 398.36)"><tspan x="0" y="0">3</tspan></text></g><g clip-path="url(#AR)" class="B C D E"><text transform="matrix(.98 0 0 -.98 386.12 398.36)"><tspan x="0" y="0">3</tspan></text></g><g clip-path="url(#AS)" class="B C D"><text transform="matrix(.98 0 0 -.98 437.08 398.36)"><tspan x="0" y="0">1</tspan></text></g><g clip-path="url(#AT)" class="B C D F"><text transform="matrix(.98 0 0 -.98 488.04 398.36)"><tspan x="0" y="0">4</tspan></text></g><g clip-path="url(#AU)" class="B C D F"><text transform="matrix(.98 0 0 -.98 535.08 398.36)"><tspan x="0 3.663 9.78" y="0">[4]</tspan></text></g><g clip-path="url(#AV)" class="B C D F"><text transform="matrix(.98 0 0 -.98 637 398.36)"><tspan x="0 6.72" y="0">LL</tspan></text></g><g clip-path="url(#AW)" class="B C D"><text transform="matrix(.98 0 0 -.98 57.82 383.66)"><tspan x="0 6.118 12.236 18.355 23.855 26.9 36.073 42.192 47.692 53.8 59.928 62.984" y="0">Lady Macduff</tspan></text></g><g clip-path="url(#AX)" class="B C D F"><text transform="matrix(.98 0 0 -.98 280.28 383.66)"><tspan x="0 6.72" y="0">LL</tspan></text></g><g clip-path="url(#AY)" class="B C D F"><text transform="matrix(.98 0 0 -.98 335.16 383.66)"><tspan x="0" y="0">2</tspan></text></g><g clip-path="url(#AZ)" class="B C D E"><text transform="matrix(.98 0 0 -.98 386.12 383.66)"><tspan x="0" y="0">3</tspan></text></g><g clip-path="url(#Aa)" class="B C D"><text transform="matrix(.98 0 0 -.98 437.08 383.66)"><tspan x="0" y="0">2</tspan></text></g><g clip-path="url(#Ab)" class="B C D F"><text transform="matrix(.98 0 0 -.98 637 383.66)"><tspan x="0 6.72" y="0">LL</tspan></text></g><g clip-path="url(#Ac)"><path d="M691.88 385.913h5.995v.537h-5.995z"/><text transform="matrix(.98 0 0 -.98 691.88 383.66)" class="B C D"><tspan x="0" y="0">2</tspan></text></g><g clip-path="url(#Ad)" class="B C D"><text transform="matrix(.98 0 0 -.98 42.14 368.96)"><tspan x="0 7.944 14.062 17.118 23.236 29.355 33.018 35.462 41.58 47.698 50.754 58.698 64.816 73.98 80.098 86.216 92.334 94.778" y="0">Catherine Campbell</tspan></text></g><g clip-path="url(#Ae)" class="B C D E F"><text transform="matrix(.98 0 0 -.98 182.28 368.96)"><tspan x="0" y="0">1</tspan></text></g><g clip-path="url(#Af)" class="B C D F"><text transform="matrix(.98 0 0 -.98 280.28 368.96)"><tspan x="0 6.72" y="0">LL</tspan></text></g><g clip-path="url(#Ag)" class="B C D"><text transform="matrix(.98 0 0 -.98 386.12 368.96)"><tspan x="0" y="0">2</tspan></text></g><g clip-path="url(#Ah)" class="B C D"><text transform="matrix(.98 0 0 -.98 437.08 368.96)"><tspan x="0" y="0">2</tspan></text></g><g clip-path="url(#Ai)" class="B C D"><text transform="matrix(.98 0 0 -.98 75.46 354.26)"><tspan x="0 7.337 13.455 17.118 20.174 26.292" y="0">Porter</tspan></text></g><g clip-path="url(#Aj)" class="B C D F"><text transform="matrix(.98 0 0 -.98 386.12 354.26)"><tspan x="0" y="0">2</tspan></text></g><g clip-path="url(#Ak)" class="B C D"><text transform="matrix(.98 0 0 -.98 437.08 354.26)"><tspan x="0" y="0">2</tspan></text></g><g clip-path="url(#Al)" class="B C D"><text transform="matrix(.98 0 0 -.98 58.8 339.56)"><tspan x="0 6.72 12.837 18.955 22.01 29.348 35.466 37.9 40.355 43.4 51.355 57.473" y="0">The Bell Hop</tspan></text></g><g clip-path="url(#Am)" class="B C D"><text transform="matrix(.98 0 0 -.98 73.5 324.86)"><tspan x="0 7.944 14.062 19.562 25.68 28.736" y="0">Hecate</tspan></text></g><g clip-path="url(#An)" class="B C D E"><text transform="matrix(.98 0 0 -.98 182.28 324.86)"><tspan x="0" y="0">4</tspan></text></g><g clip-path="url(#Ao)" class="B C D E"><text transform="matrix(.98 0 0 -.98 233.24 324.86)"><tspan x="0" y="0">4</tspan></text></g><g clip-path="url(#Ap)" class="B C D E"><text transform="matrix(.98 0 0 -.98 284.2 324.86)"><tspan x="0" y="0">4</tspan></text></g><g clip-path="url(#Aq)" class="B C D E"><text transform="matrix(.98 0 0 -.98 335.16 324.86)"><tspan x="0" y="0">4</tspan></text></g><g clip-path="url(#Ar)" class="B C D E"><text transform="matrix(.98 0 0 -.98 386.12 324.86)"><tspan x="0" y="0">4</tspan></text></g><g clip-path="url(#As)" class="B C D E"><text transform="matrix(.98 0 0 -.98 437.08 324.86)"><tspan x="0" y="0">4</tspan></text></g><g clip-path="url(#At)" class="B C D F"><text transform="matrix(.98 0 0 -.98 488.04 324.86)"><tspan x="0" y="0">4</tspan></text></g><g clip-path="url(#Au)" class="B C D"><text transform="matrix(.98 0 0 -.98 62.72 310.16)"><tspan x="0 7.337 13.455 18.955 24.455 27.51 37.893 40.337 43.393 48.893" y="0">Sexy Witch</tspan></text></g><g clip-path="url(#Av)" class="B C D"><text transform="matrix(.98 0 0 -.98 182.28 310.16)"><tspan x="0" y="0">2</tspan></text></g><g clip-path="url(#Aw)" class="B C D F"><text transform="matrix(.98 0 0 -.98 280.28 310.16)"><tspan x="0 6.72" y="0">LL</tspan></text></g><g clip-path="url(#Ax)" class="B C D E"><text transform="matrix(.98 0 0 -.98 335.16 310.16)"><tspan x="0" y="0">3</tspan></text></g><g clip-path="url(#Ay)" class="B C D E"><text transform="matrix(.98 0 0 -.98 386.12 310.16)"><tspan x="0" y="0">3</tspan></text></g><g clip-path="url(#Az)" class="B C D F"><text transform="matrix(.98 0 0 -.98 488.04 310.16)"><tspan x="0" y="0">4</tspan></text></g><g clip-path="url(#BA)" class="B C D F"><text transform="matrix(.98 0 0 -.98 637 310.16)"><tspan x="0 6.72" y="0">LL</tspan></text></g><g clip-path="url(#BB)" class="B C D"><text transform="matrix(.98 0 0 -.98 64.68 295.46)"><tspan x="0 7.337 13.455 15.9 22.018 25.073 35.455 37.9 40.955 46.455" y="0">Bald Witch</tspan></text></g><g clip-path="url(#BC)" class="B C D"><text transform="matrix(.98 0 0 -.98 182.28 295.46)"><tspan x="0" y="0">2</tspan></text></g><g clip-path="url(#BD)" class="B C D F"><text transform="matrix(.98 0 0 -.98 280.28 295.46)"><tspan x="0 6.72" y="0">LL</tspan></text></g><g clip-path="url(#BE)" class="B C D F"><text transform="matrix(.98 0 0 -.98 488.04 295.46)"><tspan x="0" y="0">4</tspan></text></g><g clip-path="url(#BF)" class="B C D F"><text transform="matrix(.98 0 0 -.98 637 295.46)"><tspan x="0 6.72" y="0">LL</tspan></text></g><g clip-path="url(#BG)" class="B C D"><text transform="matrix(.98 0 0 -.98 63.7 280.76)"><tspan x="0 9.163 15.28 17.725 23.844 26.9 37.28 39.725 42.78 48.28" y="0">Male Witch</tspan></text></g><g clip-path="url(#BH)" class="B C D"><text transform="matrix(.98 0 0 -.98 182.28 280.76)"><tspan x="0" y="0">2</tspan></text></g><g clip-path="url(#BI)" class="B C D F"><text transform="matrix(.98 0 0 -.98 280.28 280.76)"><tspan x="0 6.72" y="0">LL</tspan></text></g><g clip-path="url(#BJ)" class="B C D"><text transform="matrix(.98 0 0 -.98 335.16 280.76)"><tspan x="0" y="0">2</tspan></text></g><g clip-path="url(#BK)" class="B C D F"><text transform="matrix(.98 0 0 -.98 386.12 280.76)"><tspan x="0" y="0">2</tspan></text></g><g clip-path="url(#BL)" class="B C D F"><text transform="matrix(.98 0 0 -.98 488.04 280.76)"><tspan x="0" y="0">4</tspan></text></g><g clip-path="url(#BM)" class="B C D F"><text transform="matrix(.98 0 0 -.98 637 280.76)"><tspan x="0 6.72" y="0">LL</tspan></text></g><g clip-path="url(#BN)" class="B C D"><text transform="matrix(.98 0 0 -.98 27.44 266.06)"><tspan x="0 6.72 12.837 18.955 22.01 29.348 35.466 41.584 47.703 53.203 59.32 65.44 70.94 76.44 79.495 86.832 92.95 96.613 99.67 105.787 111.905 118.023 124.142" y="0">The Speakeasy Bartender</tspan></text></g><g clip-path="url(#BO)" class="B C D E"><text transform="matrix(.98 0 0 -.98 182.28 266.06)"><tspan x="0" y="0">4</tspan></text></g><g clip-path="url(#BP)" class="B C D E"><text transform="matrix(.98 0 0 -.98 233.24 266.06)"><tspan x="0" y="0">4</tspan></text></g><g clip-path="url(#BQ)" class="B C D E"><text transform="matrix(.98 0 0 -.98 281.26 266.06)"><tspan x="0 3.056 9.17" y="0">[4]</tspan></text></g><g clip-path="url(#BR)" class="B C D E"><text transform="matrix(.98 0 0 -.98 335.16 266.06)"><tspan x="0" y="0">4</tspan></text></g><g clip-path="url(#BS)" class="B C D E"><text transform="matrix(.98 0 0 -.98 383.18 266.06)"><tspan x="0 3.056 9.17" y="0">[4]</tspan></text></g><g clip-path="url(#BT)" class="B C D E"><text transform="matrix(.98 0 0 -.98 437.08 266.06)"><tspan x="0" y="0">4</tspan></text></g><g clip-path="url(#BU)" class="B C D E"><text transform="matrix(.98 0 0 -.98 589.96 266.06)"><tspan x="0" y="0">4</tspan></text></g><g clip-path="url(#BV)" class="B C D E"><text transform="matrix(.98 0 0 -.98 640.92 266.06)"><tspan x="0" y="0">4</tspan></text></g><g clip-path="url(#BW)" class="B C D E"><text transform="matrix(.98 0 0 -.98 691.88 266.06)"><tspan x="0" y="0">4</tspan></text></g><g clip-path="url(#BX)" class="B C D E"><text transform="matrix(.98 0 0 -.98 742.84 266.06)"><tspan x="0" y="0">4</tspan></text></g><g clip-path="url(#BY)" class="B C D"><text transform="matrix(.98 0 0 -.98 51.94 251.36)"><tspan x="0 7.337 13.455 19.573 25.692 31.192 34.247 42.192 48.3 50.754 56.254 65.417 67.86 70.917" y="0">Agnes Naismith</tspan></text></g><g clip-path="url(#BZ)" class="B C D"><text transform="matrix(.98 0 0 -.98 335.16 251.36)"><tspan x="0" y="0">4</tspan></text></g><g clip-path="url(#Ba)" class="B C D"><text transform="matrix(.98 0 0 -.98 58.8 236.66)"><tspan x="0 9.163 12.826 15.882 23.22 29.337 33 39.118 45.236 48.9 52.562 58.68" y="0">Mr Bargarran</tspan></text></g><g clip-path="url(#Bb)" class="B C D E"><text transform="matrix(.98 0 0 -.98 182.28 236.66)"><tspan x="0" y="0">4</tspan></text></g><g clip-path="url(#Bc)" class="B C D E"><text transform="matrix(.98 0 0 -.98 233.24 236.66)"><tspan x="0" y="0">4</tspan></text></g><g clip-path="url(#Bd)" class="B C D E"><text transform="matrix(.98 0 0 -.98 284.2 236.66)"><tspan x="0" y="0">4</tspan></text></g><g clip-path="url(#Be)" class="B C D E"><text transform="matrix(.98 0 0 -.98 335.16 236.66)"><tspan x="0" y="0">4</tspan></text></g><g clip-path="url(#Bf)" class="B C D E"><text transform="matrix(.98 0 0 -.98 386.12 236.66)"><tspan x="0" y="0">4</tspan></text></g><g clip-path="url(#Bg)" class="B C D E"><text transform="matrix(.98 0 0 -.98 437.08 236.66)"><tspan x="0" y="0">4</tspan></text></g><g clip-path="url(#Bh)" class="B C D E"><text transform="matrix(.98 0 0 -.98 488.04 236.66)"><tspan x="0" y="0">4</tspan></text></g><g clip-path="url(#Bi)" class="B C D E"><text transform="matrix(.98 0 0 -.98 539 236.66)"><tspan x="0" y="0">4</tspan></text></g><g clip-path="url(#Bj)" class="B C D E"><text transform="matrix(.98 0 0 -.98 589.96 236.66)"><tspan x="0" y="0">4</tspan></text></g><g clip-path="url(#Bk)" class="B C D E"><text transform="matrix(.98 0 0 -.98 640.92 236.66)"><tspan x="0" y="0">4</tspan></text></g><g clip-path="url(#Bl)" class="B C D E"><text transform="matrix(.98 0 0 -.98 691.88 236.66)"><tspan x="0" y="0">4</tspan></text></g><g clip-path="url(#Bm)" class="B C D E"><text transform="matrix(.98 0 0 -.98 742.84 236.66)"><tspan x="0" y="0">4</tspan></text></g><g clip-path="url(#Bn)" class="B C D"><text transform="matrix(.98 0 0 -.98 67.62 221.96)"><tspan x="0 9.163 12.826 15.882 22.6 28.72 31.163 34.22 40.337" y="0">Mr Fulton</tspan></text></g><g clip-path="url(#Bo)" class="B C D E"><text transform="matrix(.98 0 0 -.98 182.28 221.96)"><tspan x="0" y="0">4</tspan></text></g><g clip-path="url(#Bp)" class="B C D E"><text transform="matrix(.98 0 0 -.98 233.24 221.96)"><tspan x="0" y="0">4</tspan></text></g><g clip-path="url(#Bq)" class="B C D E"><text transform="matrix(.98 0 0 -.98 284.2 221.96)"><tspan x="0" y="0">4</tspan></text></g><g clip-path="url(#Br)" class="B C D E"><text transform="matrix(.98 0 0 -.98 335.16 221.96)"><tspan x="0" y="0">4</tspan></text></g><g clip-path="url(#Bs)" class="B C D E"><text transform="matrix(.98 0 0 -.98 386.12 221.96)"><tspan x="0" y="0">4</tspan></text></g><g clip-path="url(#Bt)" class="B C D E"><text transform="matrix(.98 0 0 -.98 437.08 221.96)"><tspan x="0" y="0">4</tspan></text></g><g clip-path="url(#Bu)" class="B C D E"><text transform="matrix(.98 0 0 -.98 488.04 221.96)"><tspan x="0" y="0">4</tspan></text></g><g clip-path="url(#Bv)" class="B C D E"><text transform="matrix(.98 0 0 -.98 539 221.96)"><tspan x="0" y="0">4</tspan></text></g><g clip-path="url(#Bw)" class="B C D E"><text transform="matrix(.98 0 0 -.98 589.96 221.96)"><tspan x="0" y="0">4</tspan></text></g><g clip-path="url(#Bx)" class="B C D E"><text transform="matrix(.98 0 0 -.98 640.92 221.96)"><tspan x="0" y="0">4</tspan></text></g><g clip-path="url(#By)" class="B C D E"><text transform="matrix(.98 0 0 -.98 691.88 221.96)"><tspan x="0" y="0">4</tspan></text></g><g clip-path="url(#Bz)" class="B C D E"><text transform="matrix(.98 0 0 -.98 742.84 221.96)"><tspan x="0" y="0">4</tspan></text></g><g clip-path="url(#CA)" class="B C D"><text transform="matrix(.98 0 0 -.98 38.22 207.26)"><tspan x="0 7.944 14.062 17.725 23.225 29.344 32.4 40.344 46.462 50.125 52.57 58.07 61.125 63.57 69.687 75.805 78.86 86.198 92.316 98.435" y="0">Nurse Christian Shaw</tspan></text></g><g clip-path="url(#CB)" class="B C D E"><text transform="matrix(.98 0 0 -.98 182.28 207.26)"><tspan x="0" y="0">5</tspan></text></g><g clip-path="url(#CC)" class="B C D E"><text transform="matrix(.98 0 0 -.98 233.24 207.26)"><tspan x="0" y="0">5</tspan></text></g><g clip-path="url(#CD)" class="B C D E"><text transform="matrix(.98 0 0 -.98 284.2 207.26)"><tspan x="0" y="0">5</tspan></text></g><g clip-path="url(#CE)" class="B C D E"><text transform="matrix(.98 0 0 -.98 335.16 207.26)"><tspan x="0" y="0">5</tspan></text></g><g clip-path="url(#CF)" class="B C D E"><text transform="matrix(.98 0 0 -.98 386.12 207.26)"><tspan x="0" y="0">5</tspan></text></g><g clip-path="url(#CG)" class="B C D E"><text transform="matrix(.98 0 0 -.98 437.08 207.26)"><tspan x="0" y="0">5</tspan></text></g><g clip-path="url(#CH)" class="B C D E"><text transform="matrix(.98 0 0 -.98 488.04 207.26)"><tspan x="0" y="0">5</tspan></text></g><g clip-path="url(#CI)" class="B C D E"><text transform="matrix(.98 0 0 -.98 539 207.26)"><tspan x="0" y="0">5</tspan></text></g><g clip-path="url(#CJ)" class="B C D E"><text transform="matrix(.98 0 0 -.98 589.96 207.26)"><tspan x="0" y="0">5</tspan></text></g><g clip-path="url(#CK)" class="B C D E"><text transform="matrix(.98 0 0 -.98 640.92 207.26)"><tspan x="0" y="0">5</tspan></text></g><g clip-path="url(#CL)" class="B C D"><text transform="matrix(.98 0 0 -.98 691.88 207.26)"><tspan x="0" y="0">5</tspan></text></g><g clip-path="url(#CM)" class="B C D E"><text transform="matrix(.98 0 0 -.98 742.84 207.26)"><tspan x="0" y="0">5</tspan></text></g><g clip-path="url(#CN)" class="B C D"><text transform="matrix(.98 0 0 -.98 59.78 192.56)"><tspan x="0 9.163 15.28 18.337 22 28.118 34.236 37.292 43.4 49.53 55.647" y="0">Matron Long</tspan></text></g><g clip-path="url(#CO)" class="B C D E"><text transform="matrix(.98 0 0 -.98 182.28 192.56)"><tspan x="0" y="0">5</tspan></text></g><g clip-path="url(#CP)" class="B C D E"><text transform="matrix(.98 0 0 -.98 233.24 192.56)"><tspan x="0" y="0">5</tspan></text></g><g clip-path="url(#CQ)" class="B C D E"><text transform="matrix(.98 0 0 -.98 284.2 192.56)"><tspan x="0" y="0">5</tspan></text></g><g clip-path="url(#CR)" class="B C D E"><text transform="matrix(.98 0 0 -.98 335.16 192.56)"><tspan x="0" y="0">5</tspan></text></g><g clip-path="url(#CS)" class="B C D E"><text transform="matrix(.98 0 0 -.98 386.12 192.56)"><tspan x="0" y="0">5</tspan></text></g><g clip-path="url(#CT)" class="B C D E"><text transform="matrix(.98 0 0 -.98 437.08 192.56)"><tspan x="0" y="0">5</tspan></text></g><g clip-path="url(#CU)" class="B C D E"><text transform="matrix(.98 0 0 -.98 488.04 192.56)"><tspan x="0" y="0">5</tspan></text></g><g clip-path="url(#CV)" class="B C D E"><text transform="matrix(.98 0 0 -.98 539 192.56)"><tspan x="0" y="0">5</tspan></text></g><g clip-path="url(#CW)" class="B C D E"><text transform="matrix(.98 0 0 -.98 589.96 192.56)"><tspan x="0" y="0">5</tspan></text></g><g clip-path="url(#CX)" class="B C D E"><text transform="matrix(.98 0 0 -.98 640.92 192.56)"><tspan x="0" y="0">5</tspan></text></g><g clip-path="url(#CY)" class="B C D E"><text transform="matrix(.98 0 0 -.98 691.88 192.56)"><tspan x="0" y="0">5</tspan></text></g><g clip-path="url(#CZ)" class="B C D E"><text transform="matrix(.98 0 0 -.98 742.84 192.56)"><tspan x="0" y="0">5</tspan></text></g><g clip-path="url(#Ca)" class="B C D"><text transform="matrix(.98 0 0 -.98 72.52 177.86)"><tspan x="0 8.556 12.22 18.337 24.455 28.118 30.562" y="0">Orderly</tspan></text></g><g clip-path="url(#Cb)" class="B C D E"><text transform="matrix(.98 0 0 -.98 182.28 177.86)"><tspan x="0" y="0">5</tspan></text></g><g clip-path="url(#Cc)" class="B C D E"><text transform="matrix(.98 0 0 -.98 233.24 177.86)"><tspan x="0" y="0">5</tspan></text></g><g clip-path="url(#Cd)" class="B C D E"><text transform="matrix(.98 0 0 -.98 284.2 177.86)"><tspan x="0" y="0">5</tspan></text></g><g clip-path="url(#Ce)" class="B C D E"><text transform="matrix(.98 0 0 -.98 335.16 177.86)"><tspan x="0" y="0">5</tspan></text></g><g clip-path="url(#Cf)" class="B C D E"><text transform="matrix(.98 0 0 -.98 386.12 177.86)"><tspan x="0" y="0">5</tspan></text></g><g clip-path="url(#Cg)" class="B C D E"><text transform="matrix(.98 0 0 -.98 437.08 177.86)"><tspan x="0" y="0">5</tspan></text></g><g clip-path="url(#Ch)" class="B C D E"><text transform="matrix(.98 0 0 -.98 488.04 177.86)"><tspan x="0" y="0">5</tspan></text></g><g clip-path="url(#Ci)" class="B C D E"><text transform="matrix(.98 0 0 -.98 539 177.86)"><tspan x="0" y="0">5</tspan></text></g><g clip-path="url(#Cj)" class="B C D E"><text transform="matrix(.98 0 0 -.98 589.96 177.86)"><tspan x="0" y="0">5</tspan></text></g><g clip-path="url(#Ck)" class="B C D E"><text transform="matrix(.98 0 0 -.98 640.92 177.86)"><tspan x="0" y="0">5</tspan></text></g><g clip-path="url(#Cl)" class="B C D E"><text transform="matrix(.98 0 0 -.98 691.88 177.86)"><tspan x="0" y="0">5</tspan></text></g><g clip-path="url(#Cm)" class="B C D E"><text transform="matrix(.98 0 0 -.98 742.84 177.86)"><tspan x="0" y="0">5</tspan></text></g><g clip-path="url(#Cn)" class="B C D"><text transform="matrix(.98 0 0 -.98 22.54 148.46)"><tspan x="0 3.056 9.775 15.893 22.01 25.067 28.123 33.623 39.74 42.185 48.303 51.966" y="0">[Font color]</tspan></text></g><g clip-path="url(#Co)" class="B C D"><text transform="matrix(.98 0 0 -.98 161.7 148.46)"><tspan x="0 7.337 12.837 18.955 25.073 28.736 31.18 37.3 43.417 48.917 55.035 61.153 64.21 67.265 73.383 75.827 81.946 87.446 92.946 96 99.057 107 112.5 118.62 124.738 127.794 133.912 140.03 145.53 147.974 153.474 156.53 159.586 167.53 173.648 176.092 179.148" y="0">Experienced: black; Hypothesis: white</tspan></text></g><g clip-path="url(#Cp)" class="B C D"><text transform="matrix(.98 0 0 -.98 22.54 133.76)"><tspan x="0 3.056 10.393 14.056 20.174 25.674 31.174 37.292 40.348" y="0">[Bracket]</tspan></text></g><g clip-path="url(#Cq)" class="B C D"><text transform="matrix(.98 0 0 -.98 161.7 133.76)"><tspan x="0 6.118 8.562 17.725 20.17 23.225 29.344 35.462 38.518 45.855 51.355 57.473 63.59 69.71 72.765 75.82 81.32 87.44 93.557 99.675 103.338 109.457 112.512 115.568 118.624 124.742 127.798 133.916 137.58 143.697 149.197 152.253 154.697 160.816 166.934 170 173.045 176.708 182.827 188.945 195.063" y="0">Limited Scene: square; Interaction: round</tspan></text></g><g clip-path="url(#Cr)" class="B C D"><text transform="matrix(.98 0 0 -.98 22.54 119.06)"><tspan x="0 3.056 10.393 16.51 18.955 25.073" y="0">[Bold]</tspan></text></g><g clip-path="url(#Cs)" class="B C D"><text transform="matrix(.98 0 0 -.98 161.7 119.06)"><tspan x="0 7.337 13.455 17.118 20.174 26.292 29.955 39.118 45.236 51.355 56.855 62.973 66.03 73.973 76.417 82.535 88.653 91.098 93.542 99.66 105.778" y="0">Performance Highlight</tspan></text></g><g clip-path="url(#Ct)" class="B C D"><text transform="matrix(.98 0 0 -.98 671.3 119.06)"><tspan x="0 9.163 15.28 21.4 27.518 30.573 36.692 42.192 45.247 50.747 53.192 58.692 64.8 70.928 76.428" y="0">made by ziyunch</tspan></text></g><g clip-path="url(#Cu)"><path d="M19.6 498.32h.98V173.94h-.98z"/><use xlink:href="#Cz"/><path d="M209.72 497.34h.98v-323.4h-.98zm50.96 0h.98v-323.4h-.98zm50.96 0h.98v-323.4h-.98zm50.96 0h.98v-323.4h-.98zm50.96 0h.98v-323.4h-.98zm50.96 0h.98v-323.4h-.98zm50.96 0h.98v-323.4h-.98zm50.96 0h.98v-323.4h-.98zm50.96 0h.98v-323.4h-.98zm50.96 0h.98v-323.4h-.98zm50.96 0h.98v-323.4h-.98zm50.96 0h.98v-323.4h-.98z"/><use xlink:href="#DA"/><path d="M20.58 483.62h750.68v-.98H20.58zm0-14.7h750.68v-.98H20.58zm0-14.7h750.68v-.98H20.58zm0-14.7h750.68v-.98H20.58zm0-14.7h750.68v-.98H20.58zm0-14.7h750.68v-.98H20.58zm0-14.7h750.68v-.98H20.58zm0-14.7h750.68v-.98H20.58zm0-14.7h750.68v-.98H20.58zm0-14.7h750.68v-.98H20.58zm0-14.7h750.68v-.98H20.58zm0-14.7h750.68v-.98H20.58zm0-14.7h750.68v-.98H20.58zm0-14.7h750.68v-.98H20.58zm0-14.7h750.68v-.98H20.58zm0-14.7h750.68v-.98H20.58zm0-14.7h750.68v-.98H20.58zm0-14.7h750.68v-.98H20.58zm0-14.7h750.68v-.98H20.58zm0-14.7h750.68v-.98H20.58zm0-14.7h750.68v-.98H20.58zm0-14.7h750.68v-.98H20.58z"/></g></g></svg>